<?xml version="1.0" standalone="no"?>
<!DOCTYPE svg PUBLIC "-//W3C//DTD SVG 20010904//EN"
 "http://www.w3.org/TR/2001/REC-SVG-20010904/DTD/svg10.dtd">
<svg version="1.0" xmlns="http://www.w3.org/2000/svg"
 width="598.000000pt" height="598.000000pt" viewBox="0 0 598.000000 598.000000"
 preserveAspectRatio="xMidYMid meet">
<metadata>
Created by potrace 1.14, written by Peter Selinger 2001-2017
</metadata>
<g transform="translate(0.000000,598.000000) scale(0.100000,-0.100000)"
fill="#000000" stroke="none">
<path d="M1053 5160 c-55 -13 -137 -57 -169 -92 -35 -36 -77 -109 -87 -148 -5
-22 -14 -712 -21 -1552 -1 -163 -5 -300 -9 -304 -9 -9 -10 2 -13 116 -1 52 -3
104 -4 115 -1 11 -2 94 -2 185 -2 425 -14 1279 -20 1408 -1 31 -23 41 -23 11
0 -8 -6 -24 -13 -36 -17 -30 -13 -3788 5 -3846 47 -158 172 -283 330 -330 51
-15 3862 -22 3877 -7 5 5 19 10 29 10 41 0 149 63 208 120 59 58 119 163 119
209 0 11 5 23 10 26 7 4 10 653 10 1916 0 1266 -3 1909 -10 1909 -5 0 -10 9
-10 20 0 11 -3 20 -7 20 -31 -1 -33 -19 -38 -416 -2 -219 -5 -403 -5 -409 0
-5 0 -66 0 -135 1 -145 -8 -339 -17 -353 -3 -5 -11 7 -18 28 -10 28 -13 179
-14 638 -2 583 -5 660 -33 691 -4 6 -8 16 -8 24 0 17 -45 80 -79 110 -14 13
-51 35 -81 50 l-55 27 -1910 2 c-1050 0 -1924 -2 -1942 -7z m1191 -81 c9 -9
-4 -39 -16 -39 -6 0 -5 -6 2 -15 7 -9 8 -15 2 -15 -6 0 -10 -205 -11 -607 0
-595 -1 -637 -13 -648 -5 -5 -183 -6 -924 -6 l-392 1 -4 30 c-3 17 -1 30 3 30
5 0 7 13 6 30 -1 16 -4 30 -7 30 -9 0 -6 384 3 397 4 6 2 33 -3 60 -11 50 -8
362 4 381 3 6 3 13 -2 16 -4 2 -9 41 -10 87 -2 71 1 87 22 123 49 84 120 133
211 145 62 9 1121 8 1129 0z m2651 -18 c57 -25 102 -66 135 -125 27 -46 30
-60 30 -139 0 -56 -4 -86 -10 -82 -5 3 -10 1 -10 -4 0 -6 5 -11 10 -11 6 0 10
-97 10 -271 0 -177 -3 -268 -10 -264 -5 3 -10 1 -10 -4 0 -6 5 -11 10 -11 6 0
10 -73 10 -200 l0 -199 -607 -2 c-335 0 -634 -1 -666 -1 -32 0 -61 2 -64 6 -3
3 -7 294 -8 646 -2 486 -5 643 -15 654 -6 9 -9 20 -5 26 4 7 183 8 583 4 517
-5 581 -8 617 -23z m-1236 -176 c2 -190 1 -195 -19 -195 -11 0 -20 -4 -20 -10
0 -5 8 -10 18 -10 16 0 17 -25 16 -422 -1 -496 -1 -489 -15 -465 -5 9 -7 22
-4 27 3 6 2 10 -4 10 -5 0 -11 -15 -13 -32 l-3 -33 -642 -3 c-354 -1 -644 1
-644 5 -1 5 -2 26 -3 48 -1 22 -6 41 -11 43 -7 2 -12 -41 -5 -50 9 -13 5 -39
-6 -49 -12 -10 -14 58 -14 470 0 479 0 482 20 471 19 -10 20 -8 18 39 -1 27
-6 47 -10 45 -4 -3 -8 -14 -8 -24 0 -10 -4 -22 -10 -25 -6 -4 -10 32 -10 100
0 91 2 106 15 101 9 -3 15 0 15 9 0 19 -17 28 -23 13 -3 -7 -6 13 -6 44 -1 31
-4 63 -7 72 -6 15 59 16 684 16 l689 0 2 -195z m-1409 -1229 c0 -8 -5 -18 -11
-21 -6 -4 -8 -14 -5 -22 3 -8 1 -11 -4 -8 -9 6 -14 -32 -11 -95 1 -44 2 -185
1 -190 -6 -24 -8 -65 -3 -73 3 -4 5 -39 5 -75 0 -313 -1 -503 -2 -532 0 -19 0
-89 0 -155 0 -66 -3 -126 -8 -132 -6 -10 -157 -13 -664 -15 -619 -3 -657 -2
-662 15 -3 11 2 17 12 17 11 0 13 3 6 8 -15 10 -16 27 -14 192 1 80 6 147 11
148 5 2 9 10 9 18 0 9 -4 12 -10 9 -12 -8 -11 -22 -14 223 -2 176 0 202 14
203 10 0 11 2 3 6 -15 6 -17 33 -3 33 15 0 12 20 -7 38 -16 16 -16 17 0 20 21
4 23 40 3 48 -10 4 -13 20 -12 55 1 27 5 52 9 55 4 4 4 10 1 15 -2 4 -7 58
-10 119 l-5 110 686 0 c590 0 685 -2 685 -14z m1404 -358 c-3 -517 -2 -500
-15 -493 -6 5 -8 37 -5 90 4 52 2 86 -4 90 -7 4 -9 -45 -8 -142 1 -81 3 -129
5 -105 6 64 20 50 26 -25 7 -84 2 -351 -7 -360 -3 -4 -6 -1 -6 6 0 8 -5 7 -16
-3 -14 -14 -84 -16 -657 -14 l-642 3 3 37 c2 30 0 36 -13 32 -16 -7 -21 -24
-6 -24 12 0 8 -27 -7 -42 -9 -9 -12 97 -12 470 0 422 2 482 15 482 8 0 15 -5
15 -12 0 -6 2 -9 5 -6 11 10 -7 37 -21 31 -12 -4 -14 24 -14 176 l0 181 683 0
683 0 -2 -372z m1408 332 c-2 -19 -7 -37 -11 -40 -9 -7 -13 -89 -4 -103 12
-19 12 -91 -1 -100 -8 -6 -8 -10 2 -14 20 -8 15 -63 -5 -64 -17 -1 -17 -2 0
-6 20 -5 23 -23 5 -23 -10 0 -10 -2 -1 -8 14 -9 18 -342 4 -342 -18 0 -20 -44
-3 -73 13 -23 14 -31 5 -34 -15 -5 -17 -43 -3 -43 6 0 10 -8 10 -17 0 -15 -2
-16 -10 -3 -7 12 -10 8 -10 -15 0 -23 3 -27 10 -15 12 18 8 -288 -5 -335 -15
-58 24 -55 -667 -55 -713 0 -653 -6 -651 70 0 19 -4 40 -9 47 -5 7 -7 17 -3
23 10 16 15 460 6 460 -4 0 -6 21 -4 48 1 26 4 164 6 307 2 193 0 272 -10 305
-7 25 -13 51 -13 58 0 10 140 12 683 10 l682 -3 -3 -35z m138 -92 c4 -109 1
-273 -4 -294 -12 -45 -26 -24 -28 39 -2 117 3 259 11 292 0 3 5 5 10 5 6 0 10
-19 11 -42z m0 -413 c0 -14 -4 -25 -10 -25 -5 0 -10 11 -10 25 0 14 5 25 10
25 6 0 10 -11 10 -25z m-4430 -116 c0 -11 -4 -17 -10 -14 -5 3 -10 13 -10 21
0 8 5 14 10 14 6 0 10 -9 10 -21z m4429 -26 c-1 -10 -5 -29 -9 -43 -7 -21 -8
-19 -9 18 -1 23 4 42 9 42 6 0 10 -8 9 -17z m-4432 -50 c-3 -10 -5 -4 -5 12 0
17 2 24 5 18 2 -7 2 -21 0 -30z m3 -95 c-1 -43 -3 -49 -11 -35 -10 17 -4 87 6
87 3 0 5 -24 5 -52z m-1 -130 c-1 -58 -2 -67 -9 -44 -8 26 -3 116 6 116 2 0 4
-33 3 -72z m4291 -364 c0 -8 -5 -12 -10 -9 -6 4 -8 11 -5 16 9 14 15 11 15 -7z
m-2817 -136 c-4 -24 -7 -326 -7 -671 l0 -628 -571 5 -571 4 -50 25 c-72 36
-134 125 -134 191 0 13 -5 26 -11 28 -11 4 -14 43 -10 133 3 41 4 46 11 25 6
-19 8 -12 8 30 0 30 -2 46 -5 35 -12 -48 -24 -38 -20 15 3 33 10 54 16 52 6
-1 11 2 11 8 0 5 -6 10 -13 10 -18 0 -17 392 1 398 16 5 15 33 0 30 -16 -4
-14 205 2 210 5 2 10 13 10 25 0 16 -3 18 -9 9 -9 -15 -21 29 -21 79 l0 29
685 0 685 0 -7 -42z m2353 7 c-7 -19 -15 -38 -19 -41 -4 -4 -1 -14 6 -22 9
-12 9 -16 0 -19 -14 -5 -18 -33 -4 -33 4 0 9 -119 10 -265 1 -178 -2 -265 -9
-265 -5 0 -10 -13 -10 -30 0 -16 4 -30 8 -30 5 0 9 -7 9 -15 0 -8 -5 -15 -11
-15 -6 0 -4 -5 4 -10 13 -9 13 -11 1 -19 -13 -8 -13 -12 -1 -26 9 -11 10 -19
3 -23 -5 -4 -8 -23 -5 -42 3 -19 6 -117 8 -218 4 -181 4 -184 -18 -202 -22
-19 -50 -19 -644 -20 -342 0 -636 3 -653 6 l-31 7 0 158 c0 120 3 159 13 160
9 0 9 2 -1 6 -10 4 -10 9 3 23 20 22 11 66 -17 81 -18 10 -19 20 -15 162 2 84
6 161 9 172 4 11 7 37 7 58 1 23 5 36 11 32 6 -3 10 1 10 9 0 9 -6 16 -12 16
-9 0 -8 4 2 10 12 8 12 12 2 18 -16 11 -16 244 1 254 7 4 8 10 0 20 -6 7 -13
41 -16 76 l-5 62 688 0 688 0 -12 -35z m-1741 -512 c5 -22 9 -23 139 -23 73 0
148 -3 165 -6 l32 -7 -3 -141 c-4 -165 6 -153 -133 -156 -49 -1 -115 -5 -145
-8 l-55 -7 -5 -79 -5 -79 -150 113 c-240 182 -268 204 -268 215 -1 6 93 81
209 168 l209 159 3 -64 c1 -34 4 -73 7 -85z m-1945 -795 c0 -6 3 -8 7 -5 3 4
21 -2 39 -13 17 -11 58 -29 90 -40 56 -20 89 -20 1929 -20 1718 0 1875 1 1921
17 27 9 58 22 69 29 29 17 85 28 85 15 0 -13 -52 -52 -110 -82 l-45 -24 -1910
-3 -1910 -3 -66 26 c-80 31 -162 109 -118 112 10 1 19 -3 19 -9z"/>
<path d="M1615 4765 c-16 -8 -75 -34 -130 -57 -69 -30 -101 -49 -103 -62 -3
-16 0 -18 19 -11 13 4 43 10 67 12 l42 5 0 -284 c0 -315 -2 -328 -61 -328 -23
0 -29 -4 -29 -22 l0 -23 157 3 c173 3 183 4 183 27 0 10 -10 15 -28 15 -63 0
-62 -9 -62 366 -1 188 0 347 2 355 4 18 -22 20 -57 4z"/>
<path d="M4375 4781 c-55 -15 -82 -29 -119 -62 -66 -58 -70 -99 -5 -55 96 65
198 32 213 -69 12 -75 -28 -126 -124 -157 -27 -9 -46 -22 -48 -32 -3 -15 3
-16 46 -10 100 13 152 -50 152 -185 0 -95 -15 -133 -62 -157 -46 -24 -96 -6
-144 52 -34 40 -42 45 -73 42 -45 -4 -70 -42 -56 -85 14 -39 79 -62 179 -62
90 -1 131 10 196 53 89 60 120 115 120 212 0 84 -21 121 -90 163 -19 11 -43
21 -52 21 -10 0 -18 5 -18 10 0 6 4 10 9 10 5 0 26 17 48 38 70 68 78 145 21
218 -37 47 -127 72 -193 55z"/>
<path d="M5041 3794 c0 -11 3 -14 6 -6 3 7 2 16 -1 19 -3 4 -6 -2 -5 -13z"/>
<path d="M3620 4966 c0 -25 5 -46 10 -46 6 0 10 18 10 39 0 22 -4 43 -10 46
-6 4 -10 -12 -10 -39z"/>
<path d="M3620 4860 c0 -5 5 -10 10 -10 6 0 10 5 10 10 0 6 -4 10 -10 10 -5 0
-10 -4 -10 -10z"/>
<path d="M2300 4822 c0 -5 7 -16 16 -23 14 -12 16 -11 13 5 -4 20 -29 35 -29
18z"/>
<path d="M3621 4804 c0 -11 3 -14 6 -6 3 7 2 16 -1 19 -3 4 -6 -2 -5 -13z"/>
<path d="M2880 4757 c-50 -24 -140 -108 -140 -131 0 -26 18 -27 42 -2 35 37
90 66 124 66 37 0 93 -36 112 -70 8 -16 12 -52 10 -100 -3 -60 -10 -88 -35
-140 -36 -73 -116 -182 -213 -289 -36 -40 -66 -77 -68 -82 -2 -5 91 -9 226 -9
l229 0 13 48 c7 26 17 51 21 56 5 6 9 19 9 31 0 12 4 25 9 31 5 5 11 23 13 39
5 45 -22 38 -50 -13 -13 -24 -34 -49 -45 -57 -29 -17 -259 -26 -249 -9 4 7 50
58 103 115 133 143 145 159 174 220 26 57 34 145 16 192 -15 39 -71 97 -109
112 -51 22 -138 18 -192 -8z"/>
<path d="M2306 4623 c6 -58 13 -69 16 -20 0 21 1 42 2 49 1 6 -4 13 -11 15 -8
3 -10 -10 -7 -44z"/>
<path d="M3623 4335 c0 -44 2 -61 4 -37 2 23 2 59 0 80 -2 20 -4 1 -4 -43z"/>
<path d="M2305 4330 c3 -5 11 -10 16 -10 6 0 7 5 4 10 -3 6 -11 10 -16 10 -6
0 -7 -4 -4 -10z"/>
<path d="M2300 4275 c0 -9 6 -12 15 -9 8 4 15 10 15 15 0 5 -7 9 -15 9 -8 0
-15 -7 -15 -15z"/>
<path d="M2300 4230 c0 -5 5 -10 10 -10 6 0 10 5 10 10 0 6 -4 10 -10 10 -5 0
-10 -4 -10 -10z"/>
<path d="M2301 4194 c0 -11 3 -14 6 -6 3 7 2 16 -1 19 -3 4 -6 -2 -5 -13z"/>
<path d="M3621 4154 c0 -11 3 -14 6 -6 3 7 2 16 -1 19 -3 4 -6 -2 -5 -13z"/>
<path d="M2303 4129 c-1 -10 2 -19 8 -19 11 0 12 27 1 34 -4 2 -9 -4 -9 -15z"/>
<path d="M2305 4090 c-3 -5 -1 -18 4 -27 9 -16 10 -14 11 10 0 28 -5 34 -15
17z"/>
<path d="M3621 4004 c0 -11 3 -14 6 -6 3 7 2 16 -1 19 -3 4 -6 -2 -5 -13z"/>
<path d="M3620 3850 c0 -5 5 -10 10 -10 6 0 10 5 10 10 0 6 -4 10 -10 10 -5 0
-10 -4 -10 -10z"/>
<path d="M1604 3233 c-257 -324 -314 -399 -314 -415 0 -16 14 -18 160 -18
l159 0 3 -107 3 -108 52 -3 c87 -5 93 2 93 118 l0 99 33 3 c29 3 32 6 35 41 3
36 3 37 -32 37 l-36 0 0 229 c0 126 -3 236 -6 245 -14 36 -44 12 -150 -121z
m3 -340 c-3 -2 -50 -5 -106 -7 -110 -4 -118 0 -78 44 12 14 58 70 102 125 l80
100 3 -129 c1 -71 1 -131 -1 -133z"/>
<path d="M2306 3563 c-8 -26 1 -63 15 -63 11 0 11 37 0 65 -8 19 -8 19 -15 -2z"/>
<path d="M3620 3534 c0 -8 5 -12 10 -9 6 4 8 11 5 16 -9 14 -15 11 -15 -7z"/>
<path d="M3620 3494 c0 -8 5 -12 10 -9 6 4 8 11 5 16 -9 14 -15 11 -15 -7z"/>
<path d="M2959 3363 l-116 -4 -12 -62 c-34 -172 -50 -257 -54 -288 l-4 -26 87
1 c81 1 90 -1 130 -29 67 -47 92 -126 70 -221 -16 -67 -54 -104 -106 -104 -27
0 -44 10 -91 55 -59 56 -92 68 -118 41 -14 -13 -20 -42 -17 -81 4 -46 184 -84
259 -54 107 43 154 78 198 149 25 39 29 55 29 120 0 64 -4 81 -26 116 -30 47
-75 87 -123 110 -26 12 -56 15 -125 13 -102 -4 -98 -8 -78 78 l13 53 60 1 c33
0 94 6 135 12 71 11 76 14 91 47 37 80 37 80 -28 78 -32 -1 -110 -4 -174 -5z"/>
<path d="M2300 3200 c0 -5 5 -10 10 -10 6 0 10 5 10 10 0 6 -4 10 -10 10 -5 0
-10 -4 -10 -10z"/>
<path d="M2306 2754 c-4 -15 -2 -32 3 -37 12 -12 13 -10 15 33 1 37 -10 39
-18 4z"/>
<path d="M3620 2590 c0 -19 3 -21 12 -12 9 9 9 15 0 24 -9 9 -12 7 -12 -12z"/>
<path d="M3621 2394 c0 -11 3 -14 6 -6 3 7 2 16 -1 19 -3 4 -6 -2 -5 -13z"/>
<path d="M4457 3340 c-114 -47 -180 -102 -247 -204 -61 -94 -80 -155 -80 -254
0 -70 4 -93 26 -136 49 -98 140 -166 223 -166 92 0 194 73 232 166 42 106 8
248 -72 301 -51 33 -150 43 -197 19 -38 -20 -40 -12 -9 52 40 82 98 142 193
197 35 21 64 42 64 46 0 18 -66 7 -133 -21z m-32 -354 c31 -32 45 -85 45 -180
0 -131 -47 -199 -116 -167 -45 20 -66 90 -67 224 -2 107 0 120 17 133 32 23
93 18 121 -10z"/>
<path d="M1585 1960 c-121 -3 -226 -9 -232 -13 -7 -5 -13 -18 -13 -30 0 -12
-9 -55 -20 -96 -24 -91 -24 -91 -2 -91 12 0 23 13 32 36 27 68 43 74 216 74
85 0 154 -3 154 -6 0 -7 -232 -462 -275 -539 -15 -27 -37 -63 -48 -79 -16 -23
-17 -30 -6 -37 8 -5 25 -8 38 -7 29 3 17 -20 206 383 73 155 147 310 168 353
12 25 17 45 11 50 -5 4 -108 5 -229 2z"/>
<path d="M901 1934 c0 -11 3 -14 6 -6 3 7 2 16 -1 19 -3 4 -6 -2 -5 -13z"/>
<path d="M901 1814 c0 -11 3 -14 6 -6 3 7 2 16 -1 19 -3 4 -6 -2 -5 -13z"/>
<path d="M3792 1928 c-23 -11 -58 -39 -77 -61 -31 -36 -35 -47 -35 -99 0 -49
5 -67 29 -102 17 -24 46 -57 65 -74 20 -17 36 -34 36 -36 0 -3 -15 -12 -32
-21 -47 -23 -62 -36 -92 -79 -20 -30 -26 -51 -26 -94 0 -72 32 -121 103 -157
43 -21 65 -25 138 -25 122 0 190 32 238 111 28 45 28 126 1 178 -21 42 -104
121 -126 121 -12 0 -12 4 -2 20 7 11 17 20 23 20 15 1 47 30 73 67 15 21 22
46 22 78 0 72 -26 111 -103 154 -52 29 -174 29 -235 -1z m165 -46 c24 -32 35
-84 29 -136 -5 -54 -21 -106 -31 -106 -3 0 -24 12 -46 26 -80 50 -103 171 -43
222 30 26 68 23 91 -6z m-23 -415 c65 -64 84 -112 67 -174 -14 -50 -30 -65
-75 -66 -78 -2 -112 45 -110 156 2 79 25 136 56 137 4 0 32 -24 62 -53z"/>
</g>
</svg>
